<?xml version="1.0" encoding="UTF-8"?>
<svg version="1.1" xmlns="http://www.w3.org/2000/svg" width="1050" height="1052">
<path d="M0 0 C346.5 0 693 0 1050 0 C1050 347.16 1050 694.32 1050 1052 C703.5 1052 357 1052 0 1052 C0 704.84 0 357.68 0 0 Z " fill="#000000" transform="translate(0,0)"/>
<path d="M0 0 C120.12 0 240.24 0 364 0 C364 182.49 364 364.98 364 553 C243.88 553 123.76 553 0 553 C0 370.51 0 188.02 0 0 Z " fill="#000000" transform="translate(343,251)"/>
<path d="M0 0 C120.12 0 240.24 0 364 0 C364 182.49 364 364.98 364 553 C243.88 553 123.76 553 0 553 C0 370.51 0 188.02 0 0 Z M11 84 C11 210.72 11 337.44 11 468 C65.78 468 120.56 468 177 468 C177 425.76 177 383.52 177 340 C180.63 340 184.26 340 188 340 C187.99777939 341.57631699 187.99555878 343.15263397 187.99327087 344.77671814 C187.9730434 359.59556628 187.9579698 374.41440938 187.94818783 389.23326778 C187.94302486 396.85270173 187.93598216 404.47212539 187.92456055 412.09155273 C187.91461372 418.73028827 187.90814658 425.36901637 187.90591151 432.00775915 C187.90460439 435.52504336 187.90151853 439.04230626 187.89426994 442.55958366 C187.88625611 446.47974938 187.88600886 450.39989399 187.88647461 454.32006836 C187.88287933 455.49466614 187.87928406 456.66926392 187.87557983 457.87945557 C187.87764183 459.47179268 187.87764183 459.47179268 187.87974548 461.09629822 C187.87882369 462.02454375 187.8779019 462.95278929 187.87695217 463.90916348 C187.76701357 465.98846136 187.76701357 465.98846136 189 467 C191.09863485 467.09906448 193.20066417 467.12632343 195.30163574 467.12698364 C195.96740364 467.12854363 196.63317153 467.13010362 197.31911421 467.13171089 C199.56628046 467.13572276 201.81338003 467.13253054 204.06054688 467.12939453 C205.66496317 467.13074849 207.26937916 467.13252839 208.87379456 467.13470459 C213.24350554 467.13927957 217.61319302 467.1374891 221.98290443 467.1343255 C226.54552908 467.13180224 231.10815165 467.13413935 235.67077637 467.13571167 C243.33439497 467.13753346 250.99800395 467.1351268 258.66162109 467.13037109 C267.5349395 467.12492845 276.40823494 467.1266911 285.28155279 467.1321975 C292.88577392 467.13672835 300.48998811 467.13737932 308.09421015 467.13475883 C312.64211053 467.1331959 317.19000009 467.13300272 321.73789978 467.13629532 C326.01252765 467.13917363 330.28712577 467.13719908 334.56175041 467.13140106 C336.13518665 467.13007325 337.70862536 467.13046794 339.28206062 467.13266373 C341.42086288 467.13537441 343.55956826 467.13199515 345.69836426 467.12698364 C346.8981617 467.12660662 348.09795914 467.12622959 349.33411407 467.12584114 C351.92091259 467.30341373 351.92091259 467.30341373 353 466 C353.09785348 463.97231758 353.12371233 461.94115869 353.12304783 459.9111166 C353.1247786 458.94194771 353.1247786 458.94194771 353.12654433 457.95319965 C353.12921728 455.76129075 353.12468331 453.56945349 353.12025452 451.37754822 C353.12069008 449.80101125 353.12156471 448.22447435 353.12284368 446.64793783 C353.12509156 442.29478683 353.12106338 437.94166019 353.11606562 433.5885123 C353.11176548 428.90205119 353.11320723 424.21559156 353.1139679 419.52912903 C353.11449341 411.40255849 353.11134376 403.27599594 353.10573006 395.14942741 C353.09761875 383.39963062 353.09500022 371.64983772 353.09374207 359.90003843 C353.09155096 340.83887433 353.0848893 321.77771451 353.07543945 302.71655273 C353.06626684 284.1953941 353.05918527 265.67423662 353.05493164 247.15307617 C353.05466892 246.01230658 353.05440619 244.871537 353.05413551 243.69619863 C353.05283051 237.97355406 353.0515668 232.25090947 353.05032361 226.52826488 C353.03994918 179.0188403 353.02232929 131.50942036 353 84 C331.50394484 83.97667308 310.00789175 83.95902185 288.51182652 83.94818783 C278.53156169 83.94302443 268.55130471 83.9359809 258.57104492 83.92456055 C249.8755386 83.91461504 241.18003795 83.90814689 232.4845261 83.90591151 C227.87736269 83.90460417 223.27021554 83.90151688 218.66305733 83.89426994 C214.33181408 83.88751183 210.00059388 83.88538261 205.66934586 83.88689232 C204.07494545 83.8866159 202.48054432 83.88460953 200.88614845 83.88079453 C198.71883429 83.87586053 196.55160857 83.8770006 194.3842926 83.87974548 C193.16844766 83.87882369 191.95260271 83.8779019 190.69991398 83.87695217 C188.08306033 83.69221274 188.08306033 83.69221274 187 85 C186.90399864 86.606892 186.87812111 88.21801769 186.87974548 89.82777405 C186.87837082 90.87250381 186.87699615 91.91723358 186.87557983 92.99362183 C186.87917511 94.14951813 186.88277039 95.30541443 186.88647461 96.49633789 C186.88625557 98.31072105 186.88625557 98.31072105 186.8860321 100.16175842 C186.88661107 103.48806351 186.89164027 106.81430719 186.89860606 110.1406014 C186.90484022 113.61329929 186.90544345 117.08599793 186.90663147 120.55870056 C186.9097446 127.13896193 186.91795775 133.71920676 186.92798096 140.29946083 C186.93914266 147.78906112 186.94465269 155.27866218 186.94967639 162.7682687 C186.96014038 178.17885565 186.97793994 193.58942505 187 209 C183.7 209 180.4 209 177 209 C177 167.75 177 126.5 177 84 C122.22 84 67.44 84 11 84 Z " fill="#F5F5F4" transform="translate(343,251)"/>
<path d="M0 0 C1.03549734 0.00037972 2.07099468 0.00075944 3.13787073 0.00115067 C4.92261414 -0.00183591 4.92261414 -0.00183591 6.74341297 -0.00488281 C8.08068642 -0.00202923 9.41795968 0.00091638 10.75523275 0.00394398 C12.16265293 0.0035084 13.57007303 0.00263374 14.97749269 0.00135481 C18.86318027 -0.00089279 22.74884055 0.00313474 26.63452464 0.00813287 C30.81791358 0.01243341 35.00130085 0.01099124 39.18469137 0.0102306 C46.43874441 0.00970511 53.69278849 0.0128545 60.94683927 0.01846844 C71.43510344 0.02658009 81.92336325 0.02919831 92.41163021 0.03045643 C109.42630825 0.03264748 126.4409815 0.03930899 143.45565695 0.04875904 C159.98820878 0.0579318 176.52075933 0.0650133 193.0533132 0.06926686 C194.58076735 0.06966094 194.58076735 0.06966094 196.13907916 0.07006299 C201.24737682 0.07136798 206.35567448 0.0726317 211.46397215 0.07387489 C253.87241792 0.08424915 296.28085848 0.1018689 338.68929952 0.1241985 C338.71242689 8.19072024 338.73021662 16.25722822 338.7411117 24.32377487 C338.74633966 28.06902887 338.75343574 31.81426025 338.76473898 35.55950123 C338.77557093 39.17101537 338.78157701 42.7825077 338.78417677 46.39403683 C338.78603046 47.77480179 338.78965002 49.1555655 338.79502958 50.53632122 C338.80224399 52.46395802 338.80270761 54.39161656 338.80282491 56.31926686 C338.80504553 57.41846958 338.80726614 58.51767231 338.80955404 59.65018421 C338.68929952 62.1241985 338.68929952 62.1241985 337.68929952 63.1241985 C335.88143561 63.22259219 334.06967847 63.24975478 332.259139 63.25003964 C331.07341016 63.25264738 329.88768131 63.25525513 328.66602129 63.2579419 C326.6870301 63.25459582 326.6870301 63.25459582 324.66805929 63.25118214 C323.26547639 63.252333 321.86289379 63.25392028 320.46031183 63.25590938 C316.58795859 63.26010757 312.7156298 63.25800982 308.84327644 63.25492316 C304.67418173 63.25267126 300.50509138 63.25614763 296.33599752 63.25890309 C288.16156971 63.26336204 279.98715104 63.26238376 271.81272286 63.25949045 C265.1723073 63.2572369 258.53189431 63.25692368 251.89147848 63.25801426 C250.94827987 63.25816749 250.00508126 63.25832073 249.03330088 63.2584786 C247.11752814 63.25879831 245.2017554 63.25912253 243.28598267 63.2594512 C225.29944944 63.26230635 207.31292129 63.25901841 189.3263889 63.25365083 C173.87541645 63.24918276 158.42445152 63.24995868 142.97347921 63.25456959 C125.05362569 63.25991472 107.13377664 63.26203166 89.21392244 63.25895733 C87.30498848 63.25863876 85.39605453 63.25832439 83.48712057 63.25801426 C82.54775878 63.25785999 81.60839699 63.25770571 80.64056969 63.25754676 C74.0040714 63.25668142 67.36757594 63.25814484 60.73107809 63.26049381 C52.64923468 63.26329134 44.56740098 63.26255457 36.48555869 63.25721307 C32.35792929 63.25457541 28.23031612 63.25357208 24.10268682 63.25686222 C20.3302675 63.25982386 16.55787959 63.25823461 12.78546315 63.25288467 C10.761168 63.25122368 8.7368707 63.25451922 6.71257776 63.2579419 C5.52684891 63.25533415 4.34112007 63.25272641 3.11946005 63.25003964 C2.08754254 63.24987728 1.05562504 63.24971493 -0.0075627 63.24954766 C-2.31070048 63.1241985 -2.31070048 63.1241985 -3.31070048 62.1241985 C-3.40985842 60.22721001 -3.43869362 58.32651063 -3.44009501 56.42693287 C-3.44324717 55.20897022 -3.44639933 53.99100758 -3.44964701 52.73613697 C-3.44785723 51.39674045 -3.44580627 50.05734425 -3.44351298 48.7179485 C-3.44418607 47.3541381 -3.44515614 45.99032782 -3.44641215 44.62651783 C-3.44788885 41.76489328 -3.44573544 38.9032999 -3.44107157 36.04167897 C-3.43537428 32.36601236 -3.43865343 28.69041876 -3.44464403 25.01475483 C-3.44825038 22.19757746 -3.44711072 19.38041752 -3.44451624 16.56323963 C-3.44384718 15.20759786 -3.44467469 13.85195453 -3.44699579 12.49631459 C-3.44952349 10.60469805 -3.44499061 8.71307601 -3.44009501 6.82146412 C-3.43929941 5.74304249 -3.43850382 4.66462086 -3.43768412 3.55351979 C-3.27044755 0.35412061 -3.1923392 0.17158595 0 0 Z " fill="#050505" transform="translate(357.3107004761696,728.8758015036583)"/>
<path d="M0 0 C112.86 0 225.72 0 342 0 C342 20.13 342 40.26 342 61 C229.14 61 116.28 61 0 61 C0 40.87 0 20.74 0 0 Z " fill="#030302" transform="translate(354,263)"/>
<path d="M0 0 C54.78 0 109.56 0 166 0 C166 41.25 166 82.5 166 125 C169.3 125 172.6 125 176 125 C175.99777939 123.44873917 175.99555878 121.89747833 175.99327087 120.29920959 C175.97304328 105.71581986 175.95796975 91.13243524 175.94818783 76.54903507 C175.94302489 69.05066936 175.93598224 61.55231409 175.92456055 54.05395508 C175.91461363 47.52069496 175.90814656 40.98744241 175.90591151 34.45417494 C175.90460441 30.99278193 175.90151864 27.53141058 175.89426994 24.07002449 C175.88625593 20.21212473 175.88600887 16.35424643 175.88647461 12.49633789 C175.88287933 11.34044159 175.87928406 10.18454529 175.87557983 8.99362183 C175.8769545 7.94889206 175.87832916 6.90416229 175.87974548 5.82777405 C175.87836279 4.45752878 175.87836279 4.45752878 175.87695217 3.05960178 C176 1 176 1 177 0 C179.12626798 -0.09690407 181.25581819 -0.12186822 183.3842926 -0.12025452 C184.05893317 -0.12110894 184.73357373 -0.12196337 185.42865795 -0.12284368 C187.70580162 -0.12450039 189.9828728 -0.11897404 192.26000977 -0.11352539 C193.88575234 -0.11324353 195.51149505 -0.11340122 197.13723755 -0.1139679 C201.56473413 -0.11425593 205.99220387 -0.10835827 210.41969419 -0.10139394 C215.04150842 -0.09516136 219.6633232 -0.09455668 224.28514099 -0.09336853 C233.04348237 -0.09025493 241.80181133 -0.08204115 250.56014723 -0.07201904 C260.52854013 -0.0608588 270.49693361 -0.05534768 280.4653312 -0.05032361 C300.97689441 -0.03985856 321.48844642 -0.02225857 342 0 C342.02286419 48.64751938 342.04049711 97.29503823 342.05106533 145.94256192 C342.05231611 151.67940001 342.05361043 157.4162381 342.05493164 163.15307617 C342.05532511 164.86630497 342.05532511 164.86630497 342.05572652 166.61414445 C342.0600837 185.1336023 342.0679715 203.65305705 342.0771528 222.17251306 C342.08648801 241.16011606 342.09205533 260.14771743 342.09408849 279.13532263 C342.095464 290.86173287 342.09981605 302.58813439 342.10791647 314.31454194 C342.1131823 322.34414857 342.11480467 330.37375064 342.11350138 338.40335887 C342.11285774 343.04337429 342.11387837 347.68337441 342.11920547 352.32338715 C342.12403878 356.56400012 342.12433911 360.80458737 342.12089889 365.04520149 C342.12047313 366.5862594 342.12176945 368.12731887 342.12488318 369.6683737 C342.12884617 371.7493203 342.12676403 373.83017173 342.12304783 375.9111166 C342.12342755 377.07116221 342.12380727 378.23120782 342.1241985 379.42640632 C342 382 342 382 341 383 C338.89906175 383.09687035 336.79480483 383.12186861 334.69163513 383.12025452 C333.69192494 383.12153615 333.69192494 383.12153615 332.67201859 383.12284368 C330.42251366 383.12450035 328.17308212 383.11897411 325.92358398 383.11352539 C324.31754559 383.11324353 322.71150707 383.11340122 321.10546875 383.1139679 C316.73168933 383.11425593 312.35793708 383.10835832 307.984164 383.10139394 C303.41840422 383.09516131 298.85264387 383.09455667 294.28688049 383.09336853 C285.63478695 383.09025495 276.98270597 383.08204119 268.33061796 383.07201904 C258.48314177 383.06085874 248.63566499 383.05534766 238.78818405 383.05032361 C218.525449 383.0398586 198.26272529 383.02225864 178 383 C178 382.67 178 382.34 178 382 C231.46 382 284.92 382 340 382 C340 256.6 340 131.2 340 2 C286.54 2 233.08 2 178 2 C178 42.92 178 83.84 178 126 C173.71 126 169.42 126 165 126 C165 84.75 165 43.5 165 1 C110.88 1 56.76 1 1 1 C1 126.73 1 252.46 1 382 C55.12 382 109.24 382 165 382 C165 340.42 165 298.84 165 256 C165.33 256 165.66 256 166 256 C166 298.24 166 340.48 166 384 C111.22 384 56.44 384 0 384 C0 257.28 0 130.56 0 0 Z " fill="#666764" transform="translate(354,335)"/>
<path d="M0 0 C1 3 1 3 -0.21484375 5.69921875 C-0.78332031 6.68535156 -1.35179687 7.67148437 -1.9375 8.6875 C-2.50339844 9.68136719 -3.06929687 10.67523438 -3.65234375 11.69921875 C-4.31943359 12.83810547 -4.31943359 12.83810547 -5 14 C-10.75 12.125 -10.75 12.125 -13 11 C-14.9972542 10.87800862 -16.99905981 10.82452488 -19 10.8125 C-20.0725 10.79832031 -21.145 10.78414063 -22.25 10.76953125 C-25.14453096 10.71414214 -25.14453096 10.71414214 -27 13 C-27.83541854 15.36757327 -27.83541854 15.36757327 -27 18 C-23.41888273 20.66828346 -19.72958135 22.6152633 -15.78515625 24.6953125 C0.42454798 33.27364395 0.42454798 33.27364395 3 41 C3.76706461 47.17439659 3.57252032 52.7585655 0.390625 58.21484375 C-3.35370833 63.02147389 -8.42082858 66.61216283 -14.484375 67.74609375 C-28.31918221 69.14246404 -37.95712001 67.39931906 -50 60 C-48.53967505 54.68972746 -46.01679014 50.53669968 -43 46 C-40.65891748 46.87790594 -38.40357142 47.76555274 -36.23828125 49.0234375 C-30.88409456 52.08607573 -26.13755089 52.89766901 -20 52 C-17.76781373 51.05185629 -17.76781373 51.05185629 -16 50 C-16 47.69 -16 45.38 -16 43 C-16.57443848 42.70343506 -17.14887695 42.40687012 -17.74072266 42.10131836 C-20.37722073 40.72888379 -23.00090348 39.33349015 -25.625 37.9375 C-26.98044922 37.23850586 -26.98044922 37.23850586 -28.36328125 36.52539062 C-35.50324883 32.69482408 -40.63863583 28.49864638 -44 21 C-44.8502402 15.18672977 -44.32673293 9.95002152 -41.3984375 4.8203125 C-31.28881264 -8.33914333 -13.39461792 -7.4765556 0 0 Z " fill="#F9F9F9" transform="translate(630,495)"/>
<path d="M0 0 C16.5 0 33 0 50 0 C50 4.62 50 9.24 50 14 C44.39 14 38.78 14 33 14 C33 32.81 33 51.62 33 71 C27.72 71 22.44 71 17 71 C17 52.19 17 33.38 17 14 C11.39 14 5.78 14 0 14 C0 9.38 0 4.76 0 0 Z " fill="#FEFEFE" transform="translate(415,491)"/>
<path d="M0 0 C5.61 0 11.22 0 17 0 C17 18.81 17 37.62 17 57 C24.92 57 32.84 57 41 57 C41 61.62 41 66.24 41 71 C27.47 71 13.94 71 0 71 C0 47.57 0 24.14 0 0 Z " fill="#F6F6F6" transform="translate(502,491)"/>
</svg>
