<svg version="1.1" id="Layer_1" xmlns="http://www.w3.org/2000/svg" xmlns:xlink="http://www.w3.org/1999/xlink" x="0px" y="0px"
	 width="100%" viewBox="0 0 499 500" enable-background="new 0 0 499 500" xml:space="preserve">
<!-- Outer border frame: was black, now white -->
<path fill="#ffffff" opacity="1.000000" stroke="none" 
	d="
M323.000000,501.000000 
	C215.333359,501.000000 108.166718,501.000000 1.000057,501.000000 
	C1.000038,334.333405 1.000038,167.666794 1.000019,1.000147 
	C167.333237,1.000098 333.666473,1.000098 499.999756,1.000049 
	C499.999847,167.666519 499.999847,334.333038 499.999939,500.999786 
	C441.166656,501.000000 382.333344,501.000000 323.000000,501.000000 
M306.500549,120.697350 
	C261.172943,120.693817 215.845322,120.689041 170.517715,120.688156 
	C163.971420,120.688026 163.961182,120.696678 163.960861,127.264992 
	C163.956833,210.588135 163.955963,293.911285 163.954315,377.234436 
	C163.954285,379.000610 163.954315,380.766754 163.954315,382.543976 
	C221.964188,382.543976 279.355804,382.543976 336.731506,382.543976 
	C336.731506,295.146332 336.731506,208.079849 336.731506,120.696732 
	C326.799225,120.696732 317.149933,120.696732 306.500549,120.697350 
z"/>
<!-- Inner white fill area: was #F3F3F2, now transparent (omitted) -->
<!-- Inner dark detail paths (TLS letters): was ~black, now white -->
<path fill="#ffffff" opacity="1.000000" stroke="none" 
	d="
M169.129761,225.999969 
	C169.129898,204.020767 169.129898,182.541565 169.129898,160.691010 
	C195.273804,160.691010 221.159698,160.691010 247.536591,160.691010 
	C247.536591,180.269424 247.536591,199.828018 247.536591,219.724625 
	C249.589401,219.819641 251.171982,219.892899 253.314072,219.992035 
	C253.314072,200.164307 253.314072,180.608078 253.314072,160.687225 
	C279.582397,160.687225 305.308594,160.687225 331.441193,160.687225 
	C331.441193,220.942993 331.441193,281.275360 331.441193,341.899261 
	C305.566193,341.899261 279.691833,341.899261 253.405701,341.899261 
	C253.405701,321.897491 253.405701,302.132812 253.405701,282.214142 
	C251.393646,282.214142 249.793167,282.214142 247.751923,282.214142 
	C247.751923,302.141083 247.751923,321.886566 247.751923,341.913208 
	C221.421600,341.913208 195.532715,341.913208 169.129639,341.913208 
	C169.129639,303.355103 169.129639,264.927521 169.129761,225.999969 
M299.013611,265.475403 
	C303.715759,259.493988 303.118164,254.404221 297.034485,250.359146 
	C294.844666,248.903107 292.254089,248.053406 290.046692,246.618790 
	C288.840149,245.834610 288.052155,244.406464 287.075378,243.268753 
	C288.530884,242.470093 289.989655,241.018768 291.441132,241.026062 
	C293.606598,241.036926 295.766907,242.076019 298.072968,242.717575 
	C299.011719,240.717972 299.895813,238.834702 301.201324,236.053848 
	C296.938324,235.280060 293.277466,234.127716 289.600342,234.073212 
	C285.129120,234.006958 281.645966,236.460693 280.059143,240.766312 
	C278.465149,245.091354 280.147034,248.629364 283.709076,251.209091 
	C285.699310,252.650467 288.137543,253.490402 290.062592,254.998703 
	C291.390076,256.038818 292.184143,257.759674 293.216614,259.176331 
	C291.582733,259.983582 289.799164,261.661377 288.346954,261.411743 
	C285.562347,260.933044 282.965820,259.360016 280.085571,258.154968 
	C278.900665,260.206268 277.695709,262.292267 276.444366,264.458588 
	C283.842163,268.812256 290.919861,270.570038 299.013611,265.475403 
M197.996567,235.820755 
	C197.996567,237.439072 197.996567,239.057373 197.996567,241.156586 
	C200.899033,241.156586 203.465134,241.156586 206.488647,241.156586 
	C206.488647,250.363037 206.488647,259.091339 206.488647,267.781128 
	C209.216583,267.781128 211.473190,267.781128 214.121231,267.781128 
	C214.121231,258.813629 214.121231,250.080963 214.121231,241.234390 
	C216.928253,241.100647 219.343369,240.985580 221.735748,240.871597 
	C221.735748,238.635818 221.735748,236.728485 221.735748,234.945404 
	C213.727783,234.945404 205.983139,234.945404 197.996567,235.820755 
M255.249786,261.321320 
	C252.668152,261.321320 250.086533,261.321320 247.090973,261.321320 
	C247.090973,251.981918 247.090973,243.408539 247.090973,234.837433 
	C244.423523,234.837433 242.219833,234.837433 239.929443,234.837433 
	C239.929443,245.990952 239.929443,256.762390 239.929443,267.764832 
	C246.315506,267.764832 252.544266,267.764832 259.356934,267.764832 
	C257.826691,265.489105 261.638214,261.460876 255.249786,261.321320 
z"/>
<path fill="#ffffff" opacity="1.000000" stroke="none" 
	d="
M308.999878,377.196808 
	C262.238342,377.196869 215.976791,377.196869 169.421997,377.196869 
	C169.421997,367.398895 169.421997,357.993011 169.421997,348.232849 
	C223.310043,348.232849 277.172119,348.232849 331.436676,348.232849 
	C331.436676,357.634094 331.436676,367.155426 331.436676,377.196747 
	C324.066559,377.196747 316.783203,377.196747 308.999878,377.196808 
z"/>
<path fill="#ffffff" opacity="1.000000" stroke="none" 
	d="
M169.141907,152.674042 
	C169.135620,143.725266 169.135620,135.249008 169.135620,126.400490 
	C223.324615,126.400490 277.301361,126.400490 331.566284,126.400490 
	C331.566284,135.728058 331.566284,144.974045 331.566284,154.938538 
	C329.825073,154.938538 328.074524,154.938538 326.323975,154.938538 
	C275.713013,154.938599 225.102005,154.956940 174.491196,154.863235 
	C172.709137,154.859924 170.929153,153.743942 169.141907,152.674042 
z"/>
</svg>
